PathFileType	4	(X/Y/Z)	 s08c0403.trc
DataRate	CameraRate	NumFrames	NumMarkers	Units	OrigDataRate	OrigDataStartFrame	OrigNumFrames
200	200	4	50	mm	200	1751	2000
Frame#	Time	racr			lacr			c7			jug			rlel			rdr			llel			ldr			s2			lic			ric			lasi			rasi			rpsi			lpsi			rgt			lgt			rth1			rth2			rth3			rth4			rlfc			rmfc			rsh1			rsh2			rsh3			rsh4			rlmal			rmmal			rcal			rtoe			rmt5			lth1			lth2			lth4			lth3			llfc			lmfc			llmal			lmmal			lcal			lmt5			lsh1			lsh2			lsh3			lsh4			ltoe			SBIKE			LBIKE			RBIKE			
		X1	Y1	Z1	X2	Y2	Z2	X3	Y3	Z3	X4	Y4	Z4	X5	Y5	Z5	X6	Y6	Z6	X7	Y7	Z7	X8	Y8	Z8	X9	Y9	Z9	X10	Y10	Z10	X11	Y11	Z11	X12	Y12	Z12	X13	Y13	Z13	X14	Y14	Z14	X15	Y15	Z15	X16	Y16	Z16	X17	Y17	Z17	X18	Y18	Z18	X19	Y19	Z19	X20	Y20	Z20	X21	Y21	Z21	X22	Y22	Z22	X23	Y23	Z23	X24	Y24	Z24	X25	Y25	Z25	X26	Y26	Z26	X27	Y27	Z27	X28	Y28	Z28	X29	Y29	Z29	X30	Y30	Z30	X31	Y31	Z31	X32	Y32	Z32	X33	Y33	Z33	X34	Y34	Z34	X35	Y35	Z35	X36	Y36	Z36	X37	Y37	Z37	X38	Y38	Z38	X39	Y39	Z39	X40	Y40	Z40	X41	Y41	Z41	X42	Y42	Z42	X43	Y43	Z43	X44	Y44	Z44	X45	Y45	Z45	X46	Y46	Z46	X47	Y47	Z47	X48	Y48	Z48	X49	Y49	Z49	X50	Y50	Z50	
1751	8.7550	786.314807	1399.308951	-129.461334	759.168738	1361.239881	-449.826513	761.632778	1429.279674	-292.109153	706.826264	1278.127085	-275.432412	684.653745	1188.693758	41.663779	754.595348	923.192763	-52.417480	626.630793	1133.171094	-583.638184	746.284599	932.418051	-442.812425	182.558981	1266.048574	-204.921519	320.467327	1238.894936	-373.712305	364.224373	1259.272103	-60.155942	350.988423	1199.535084	-330.249937	370.818866	1190.518480	-94.797525	226.121338	1302.900734	-157.623380	216.172890	1304.949121	-252.400169	273.096607	1144.809572	-17.449714	260.975356	1137.556163	-393.898840	364.912491	995.269308	-17.816586	421.351108	927.147475	-26.458021	436.414344	841.783602	-31.806114	451.717285	942.407188	-40.101388	464.149235	729.978399	-46.990502	438.890978	726.626564	-157.183474	350.323879	662.464618	-16.138161	300.823708	590.515304	-37.958635	223.659356	552.679607	-43.434037	322.193247	573.247125	-67.888660	126.623410	482.845021	-52.004108	154.722670	483.493986	-138.480792	68.213687	533.962944	-102.175328	191.182266	260.238383	-102.198309	123.855456	327.989010	-35.785762	333.515826	1021.473163	-402.115987	400.050374	965.076338	-400.651549	429.691671	985.053840	-391.261926	428.890860	881.037152	-400.682028	480.922205	762.204886	-379.356079	479.533936	733.250567	-275.635883	320.802151	371.831685	-393.517185	361.692259	397.331078	-321.760603	245.643522	352.492364	-357.121981	447.105414	279.928076	-418.514122	435.241134	640.945163	-407.066543	421.906377	558.589237	-394.761014	370.503605	486.163546	-396.891176	442.242834	551.892664	-358.663987	530.720633	303.462891	-349.574769	-197.606888	923.332801	-223.729789	-5.743277	83.573495	-426.323663	-8.624084	80.720534	-27.978799	
1752	8.7600	784.331587	1400.675986	-127.144622	758.676659	1362.900274	-448.099030	760.389549	1430.794890	-290.154420	705.536929	1279.615309	-273.895529	683.708843	1188.649705	42.579026	754.531015	923.360515	-52.802405	626.740500	1134.424198	-581.798902	747.311361	932.488902	-442.558324	181.150805	1264.702001	-206.226484	320.543065	1237.604184	-374.646849	362.194116	1259.355703	-61.113402	350.302268	1197.108057	-331.529089	369.121524	1190.776273	-95.400346	223.638573	1302.082035	-158.750528	214.528605	1303.310200	-253.745888	271.880942	1144.938817	-17.761383	259.016999	1133.665446	-394.070201	365.798461	996.725693	-17.543872	423.847637	930.076275	-26.481735	441.015025	844.995678	-32.530071	453.695015	945.977954	-40.497453	470.992737	734.643807	-48.682522	445.241838	731.129594	-158.683091	356.865721	668.579166	-17.182507	306.112198	597.492175	-38.968792	228.380899	560.810977	-44.215495	326.968867	579.974986	-69.098361	130.268276	493.103111	-51.935898	157.955542	493.616802	-138.757706	71.029754	544.247221	-102.639420	193.499401	270.381038	-102.082725	126.656735	338.383588	-35.788889	329.693565	1016.014260	-402.387020	394.873712	958.009870	-400.924634	425.017249	977.287980	-391.892147	421.599138	873.201899	-400.265897	471.911321	754.843347	-378.909716	469.893753	726.418979	-275.689952	318.548068	362.126265	-394.040706	359.381367	387.854878	-322.193903	243.783376	343.465262	-357.391722	444.754703	269.142109	-418.398530	428.221953	632.756137	-406.878104	416.536263	550.158825	-394.467654	366.614835	476.716364	-396.871631	436.439555	544.227768	-358.217411	528.484127	292.076749	-349.429034	-197.638610	923.269885	-223.983808	-5.742596	83.599495	-426.334356	-8.574165	80.677159	-27.988466	
1753	8.7650	782.347340	1401.952613	-124.872422	758.230898	1364.538345	-446.099150	759.131936	1432.104237	-288.071288	704.452024	1280.824299	-272.184975	682.760933	1188.509329	43.530758	754.425452	923.441088	-53.327640	626.977373	1135.732497	-579.850883	747.889205	932.384881	-442.954177	179.710375	1263.499061	-207.689681	320.682643	1236.197833	-375.573785	360.074445	1259.517813	-62.072081	349.636754	1194.368344	-332.887271	367.558574	1190.949590	-95.673672	221.385606	1301.960574	-160.333863	213.010942	1302.008776	-255.244067	269.758009	1145.043800	-18.696438	257.191025	1129.858212	-394.371727	366.288191	998.110085	-17.349311	425.951420	932.903050	-26.626917	444.375481	848.253513	-33.037637	455.731293	949.636333	-40.432668	477.766906	739.564010	-50.381315	451.668469	735.905004	-160.297615	363.028770	675.350638	-19.204946	311.531418	604.681724	-39.899224	233.052430	569.116114	-44.623822	331.882842	586.851627	-70.261895	133.417071	503.258478	-52.423715	161.504705	503.309828	-139.638826	74.336794	554.665505	-102.842618	196.885596	280.694159	-102.242388	130.121619	348.717505	-35.923376	325.815583	1010.612208	-402.782524	389.441074	950.928349	-401.243389	420.100994	969.567591	-392.652848	414.076476	865.541889	-399.856424	462.172803	747.597480	-378.903434	459.580094	719.693362	-275.934092	315.790098	352.694701	-394.157797	355.592608	378.531915	-321.731764	241.433902	334.841097	-357.466528	441.721862	258.688343	-418.291727	420.608172	625.064788	-406.665212	410.470789	541.088703	-392.146125	361.975229	467.681921	-396.782120	430.147302	536.701649	-357.833876	525.692325	280.745604	-349.304058	-197.578074	923.330948	-223.864436	-5.714719	83.597090	-426.330234	-8.592692	80.726466	-27.993659	
1754	8.7700	780.424862	1403.011933	-122.541671	757.753343	1366.141829	-444.239250	757.994990	1433.258593	-285.818334	703.255816	1281.959133	-270.344173	681.802903	1188.347255	44.461582	754.491380	923.550006	-53.349313	627.268541	1137.032602	-577.900147	748.512578	932.226505	-443.316334	178.298978	1262.326542	-209.355400	320.885903	1234.672911	-376.489152	357.862230	1259.800204	-63.090145	348.805673	1191.580849	-334.248999	365.328572	1191.083385	-96.496298	219.339351	1301.031734	-162.245494	211.696164	1300.473922	-256.950922	268.599600	1145.563632	-18.875087	255.441159	1126.251358	-394.656489	366.285498	999.416976	-17.380941	427.689143	935.843362	-26.726711	448.563296	851.855595	-33.259173	456.785130	953.269053	-41.523138	484.771040	744.806396	-51.968857	463.751926	739.409515	-159.366526	369.646000	681.621649	-20.181966	317.466750	611.850535	-40.569144	237.783463	577.513235	-45.437914	336.774995	593.815560	-71.482304	136.877642	513.340623	-53.057984	165.094310	513.273486	-140.188779	77.567610	564.630483	-103.004065	201.006653	291.135838	-102.411766	134.092865	358.974438	-36.002031	321.851208	1005.471847	-403.324008	383.787645	943.968468	-401.612235	414.824775	961.889876	-393.903973	406.141158	857.929615	-399.313715	452.322729	740.482531	-378.811562	449.155422	712.845030	-276.443356	312.271702	343.789897	-394.268904	352.347370	369.513112	-321.951723	238.681209	326.608326	-357.405635	438.113652	248.304508	-418.126149	412.193563	617.577822	-406.559162	403.787175	533.245740	-392.119292	356.565529	459.200513	-396.757601	423.313289	529.464196	-357.664527	522.326756	269.564697	-349.243538	-197.617828	923.159752	-224.220311	-5.705753	83.600610	-426.337497	-8.576535	80.716603	-28.013888	
